<mxfile host="65bd71144e">
    <diagram id="MedL9wydmu6AcMIuzwXg" name="Page-1">
        <mxGraphModel dx="683" dy="540" grid="1" gridSize="10" guides="1" tooltips="1" connect="1" arrows="1" fold="1" page="1" pageScale="1" pageWidth="827" pageHeight="1169" math="0" shadow="0">
            <root>
                <mxCell id="0"/>
                <mxCell id="1" parent="0"/>
                <mxCell id="8" value="" style="rounded=0;whiteSpace=wrap;html=1;fillStyle=auto;" vertex="1" parent="1">
                    <mxGeometry x="264" y="270" width="300" height="120" as="geometry"/>
                </mxCell>
                <mxCell id="10" value="&lt;font style=&quot;font-size: 14px;&quot;&gt;&lt;b&gt;Nivo poslovne logike&lt;/b&gt;&lt;/font&gt;" style="text;html=1;strokeColor=none;fillColor=none;align=center;verticalAlign=middle;whiteSpace=wrap;rounded=0;fillStyle=auto;" vertex="1" parent="1">
                    <mxGeometry x="264" y="270" width="300" height="30" as="geometry"/>
                </mxCell>
                <mxCell id="20" value="" style="shape=doubleArrow;direction=south;whiteSpace=wrap;html=1;fillStyle=auto;fontSize=14;fillColor=#CCCCCC;" vertex="1" parent="1">
                    <mxGeometry x="384" y="390" width="60" height="70" as="geometry"/>
                </mxCell>
                <mxCell id="26" value="" style="shape=doubleArrow;direction=south;whiteSpace=wrap;html=1;fillStyle=auto;fontSize=14;fillColor=#CCCCCC;" vertex="1" parent="1">
                    <mxGeometry x="384" y="200" width="60" height="70" as="geometry"/>
                </mxCell>
                <mxCell id="27" value="" style="sketch=0;outlineConnect=0;fontColor=#232F3E;gradientColor=none;fillColor=#505050;strokeColor=none;dashed=0;verticalLabelPosition=bottom;verticalAlign=top;align=center;html=1;fontSize=12;fontStyle=0;aspect=fixed;pointerEvents=1;shape=mxgraph.aws4.stack;fillStyle=auto;" vertex="1" parent="1">
                    <mxGeometry x="388.34000000000003" y="305" width="51.32" height="50" as="geometry"/>
                </mxCell>
                <mxCell id="33" value="" style="group" vertex="1" connectable="0" parent="1">
                    <mxGeometry x="264" y="460" width="300" height="120" as="geometry"/>
                </mxCell>
                <mxCell id="13" value="" style="rounded=0;whiteSpace=wrap;html=1;fillStyle=auto;" vertex="1" parent="33">
                    <mxGeometry width="300" height="117.64705882352942" as="geometry"/>
                </mxCell>
                <mxCell id="15" value="&lt;font style=&quot;font-size: 14px;&quot;&gt;&lt;b&gt;Podatkovni nivo&lt;/b&gt;&lt;/font&gt;" style="text;html=1;strokeColor=none;fillColor=none;align=center;verticalAlign=middle;whiteSpace=wrap;rounded=0;fillStyle=auto;" vertex="1" parent="33">
                    <mxGeometry width="300" height="35.294117647058826" as="geometry"/>
                </mxCell>
                <mxCell id="16" value="Podatkovna baza" style="text;html=1;strokeColor=none;fillColor=none;align=center;verticalAlign=middle;whiteSpace=wrap;rounded=0;fillStyle=auto;fontSize=14;" vertex="1" parent="33">
                    <mxGeometry x="55" y="84.70588235294117" width="190" height="35.294117647058826" as="geometry"/>
                </mxCell>
                <mxCell id="30" value="" style="shape=cylinder3;whiteSpace=wrap;html=1;boundedLbl=1;backgroundOutline=1;size=15;fillStyle=auto;fontSize=14;fillColor=#CCCCCC;container=0;" vertex="1" parent="33">
                    <mxGeometry x="125" y="48.81999999999999" width="50" height="40" as="geometry"/>
                </mxCell>
                <mxCell id="28" value="" style="shape=cylinder3;whiteSpace=wrap;html=1;boundedLbl=1;backgroundOutline=1;size=15;fillStyle=auto;fontSize=14;fillColor=#FFF;container=0;" vertex="1" parent="33">
                    <mxGeometry x="125" y="38.81999999999999" width="50" height="40" as="geometry"/>
                </mxCell>
                <mxCell id="29" value="" style="shape=cylinder3;whiteSpace=wrap;html=1;boundedLbl=1;backgroundOutline=1;size=15;fillStyle=auto;fontSize=14;fillColor=#CCCCCC;container=0;" vertex="1" parent="33">
                    <mxGeometry x="125" y="28.819999999999993" width="50" height="40" as="geometry"/>
                </mxCell>
                <mxCell id="4" value="" style="rounded=0;whiteSpace=wrap;html=1;fillStyle=auto;" vertex="1" parent="1">
                    <mxGeometry x="264" y="80" width="300" height="120" as="geometry"/>
                </mxCell>
                <mxCell id="5" value="" style="sketch=0;pointerEvents=1;shadow=0;dashed=0;html=1;strokeColor=none;fillColor=#505050;labelPosition=center;verticalLabelPosition=bottom;verticalAlign=top;outlineConnect=0;align=center;shape=mxgraph.office.devices.cell_phone_iphone_standalone;fillStyle=auto;" vertex="1" parent="1">
                    <mxGeometry x="399" y="114.5" width="28.5" height="51" as="geometry"/>
                </mxCell>
                <mxCell id="6" value="&lt;font style=&quot;font-size: 14px;&quot;&gt;&lt;b&gt;Nivo uporabniÅ¡kega vmesnika&lt;/b&gt;&lt;/font&gt;" style="text;html=1;strokeColor=none;fillColor=none;align=center;verticalAlign=middle;whiteSpace=wrap;rounded=0;fillStyle=auto;" vertex="1" parent="1">
                    <mxGeometry x="264" y="80" width="300" height="30" as="geometry"/>
                </mxCell>
                <mxCell id="7" value="Mobilna aplikacija Lovec" style="text;html=1;strokeColor=none;fillColor=none;align=center;verticalAlign=middle;whiteSpace=wrap;rounded=0;fillStyle=auto;fontSize=14;" vertex="1" parent="1">
                    <mxGeometry x="319" y="170" width="190" height="30" as="geometry"/>
                </mxCell>
            </root>
        </mxGraphModel>
    </diagram>
</mxfile>